<?xml version="1.0" encoding="UTF-8" standalone="no"?>
<!-- Created with Inkscape (http://www.inkscape.org/) -->

<svg
   xmlns:dc="http://purl.org/dc/elements/1.1/"
   xmlns:cc="http://creativecommons.org/ns#"
   xmlns:rdf="http://www.w3.org/1999/02/22-rdf-syntax-ns#"
   xmlns:svg="http://www.w3.org/2000/svg"
   xmlns="http://www.w3.org/2000/svg"
   xmlns:xlink="http://www.w3.org/1999/xlink"
   xmlns:sodipodi="http://sodipodi.sourceforge.net/DTD/sodipodi-0.dtd"
   xmlns:inkscape="http://www.inkscape.org/namespaces/inkscape"
   width="960.00751"
   height="791.57062"
   id="svg2"
   version="1.1"
   inkscape:version="0.48.1 r9760"
   sodipodi:docname="main-graphic.svg">
  <defs
     id="defs4">
    <linearGradient
       inkscape:collect="always"
       id="linearGradient5037">
      <stop
         style="stop-color:#ff80a0;stop-opacity:1;"
         offset="0"
         id="stop5039" />
      <stop
         style="stop-color:#ffc324;stop-opacity:1"
         offset="1"
         id="stop5041" />
    </linearGradient>
    <linearGradient
       id="linearGradient4500">
      <stop
         style="stop-color:#f79c44;stop-opacity:1;"
         offset="0"
         id="stop4502" />
      <stop
         style="stop-color:#e7770a;stop-opacity:1;"
         offset="1"
         id="stop4504" />
    </linearGradient>
    <linearGradient
       inkscape:collect="always"
       xlink:href="#linearGradient4500"
       id="linearGradient4506"
       x1="860.336"
       y1="668.08124"
       x2="903.36353"
       y2="668.08124"
       gradientUnits="userSpaceOnUse"
       spreadMethod="repeat" />
    <linearGradient
       inkscape:collect="always"
       xlink:href="#linearGradient4500"
       id="linearGradient4508"
       x1="860.28802"
       y1="668.05725"
       x2="914.38751"
       y2="668.05725"
       gradientUnits="userSpaceOnUse"
       spreadMethod="repeat" />
    <linearGradient
       inkscape:collect="always"
       xlink:href="#linearGradient4500"
       id="linearGradient4884"
       gradientUnits="userSpaceOnUse"
       spreadMethod="repeat"
       x1="860.28802"
       y1="668.05725"
       x2="914.38751"
       y2="668.05725" />
    <linearGradient
       inkscape:collect="always"
       xlink:href="#linearGradient4500"
       id="linearGradient4886"
       gradientUnits="userSpaceOnUse"
       spreadMethod="repeat"
       x1="860.336"
       y1="668.08124"
       x2="903.36353"
       y2="668.08124" />
    <linearGradient
       inkscape:collect="always"
       xlink:href="#linearGradient5037"
       id="linearGradient5043"
       x1="1028.2697"
       y1="920.60089"
       x2="1028.2697"
       y2="1503.2742"
       gradientUnits="userSpaceOnUse" />
  </defs>
  <sodipodi:namedview
     id="base"
     pagecolor="#ffffff"
     bordercolor="#666666"
     borderopacity="1.0"
     inkscape:pageopacity="0.0"
     inkscape:pageshadow="2"
     inkscape:zoom="0.35355339"
     inkscape:cx="330.0267"
     inkscape:cy="427.37437"
     inkscape:document-units="px"
     inkscape:current-layer="layer2"
     showgrid="false"
     inkscape:window-width="1920"
     inkscape:window-height="1058"
     inkscape:window-x="1440"
     inkscape:window-y="0"
     inkscape:window-maximized="1"
     fit-margin-top="0"
     fit-margin-left="0"
     fit-margin-right="0"
     fit-margin-bottom="0" />
  <metadata
     id="metadata7">
    <rdf:RDF>
      <cc:Work
         rdf:about="">
        <dc:format>image/svg+xml</dc:format>
        <dc:type
           rdf:resource="http://purl.org/dc/dcmitype/StillImage" />
        <dc:title />
      </cc:Work>
    </rdf:RDF>
  </metadata>
  <g
     inkscape:groupmode="layer"
     id="layer2"
     inkscape:label="bg"
     style="display:inline"
     transform="translate(-548.84375,-728.04309)">
    <rect
       style="fill:url(#linearGradient5043);fill-opacity:1;stroke:none;display:inline"
       id="rect4493"
       width="960"
       height="572.94324"
       x="548.85126"
       y="924.04309"
       inkscape:export-filename="/Users/audreyr/Documents/artwork/barcamp-django/work-in-progress/barcamp-django-v17.png"
       inkscape:export-xdpi="90"
       inkscape:export-ydpi="90" />
    <rect
       inkscape:export-ydpi="90"
       inkscape:export-xdpi="90"
       inkscape:export-filename="/Users/audreyr/Documents/artwork/barcamp-django/work-in-progress/barcamp-django-v17.png"
       y="1460.0431"
       x="548.85126"
       height="59.570618"
       width="960"
       id="rect4681"
       style="fill:#80ffe6;fill-opacity:1;stroke:none;display:inline" />
    <rect
       style="fill:#80ffe6;fill-opacity:1;stroke:none;display:inline"
       id="rect4827"
       width="960"
       height="297.15851"
       x="548.85126"
       y="728.04309"
       inkscape:export-filename="/Users/audreyr/Documents/artwork/barcamp-django/work-in-progress/barcamp-django-v17.png"
       inkscape:export-xdpi="90"
       inkscape:export-ydpi="90" />
    <path
       style="fill:#431900;fill-opacity:1"
       d="m 608.125,1054.6562 0,2.9688 -2.75,3.375 0,4.625 c -6.3165,9.7348 -17.08656,26.1602 -28.9375,43.5312 -8.70239,12.7524 -18.2515,26.4178 -27.59375,39.1876 l 0,3.4062 c 0.70732,-0.9608 1.41445,-1.903 2.125,-2.875 l 0,69.625 c -0.70713,0.8209 -1.41843,1.6388 -2.125,2.4375 l 0,3.0937 c 0.71013,-0.7892 1.41246,-1.5963 2.125,-2.4062 l 0,51.6562 -2.125,0 0,27.2813 31.84375,0 0,-3.9687 c 9.74894,-0.9766 18.0472,-1.7983 22.5625,-2.1876 l 0,62 -1.40625,2.3438 0,9.625 -2.09375,0.062 -1.6875,2.75 -0.1875,8.5313 c 0,0 -13.53086,0.722 -21.875,1.2812 -8.3441,0.5414 -14.46875,2.25 -14.46875,2.25 l 0,3.3125 c 0,0 10.01626,2.625 29.3125,2.625 l 76.625,0 c 19.3103,0 29.28125,-2.625 29.28125,-2.625 l 0,-3.3125 c 0,0 -6.12105,-1.7051 -14.46875,-2.25 -8.3441,-0.5592 -21.875,-1.2813 -21.875,-1.2812 l -0.1875,-8.5313 -1.6875,-2.75 -1.59375,-0.062 0,-9.2812 -1.40625,-2.3438 0,-65.2188 c 38.4261,-1.4295 58.5631,0.9024 70.1875,6.8438 l 0,21.5312 -0.5,0.8126 0,3.2187 -0.5625,0 -0.5625,0.9687 -0.0625,2.9376 c 0,0 -4.6749,0.2392 -7.5625,0.4374 -2.8698,0.1983 -5,0.7813 -5,0.7813 l 0,1.1563 c 0,0 3.4688,0.875 10.125,0.875 0.9731,0 7.28555,0.1562 13.53125,0.1562 6.0121,0 11.96845,-0.1563 12.90625,-0.1562 6.6632,0 10.125,-0.875 10.125,-0.875 l 0,-1.1563 c 0,0 -2.09545,-0.583 -4.96875,-0.7813 -2.884,-0.1981 -7.5625,-0.4375 -7.5625,-0.4374 l -0.0625,-2.9376 -0.59375,-0.9687 -0.71875,0 0,-3.3125 -0.46875,-0.8125 0,-18.4063 c 1.4261,0.085 2.75625,0.2087 3.90625,0.375 l 0,-3.4687 c -0.9483,-1.4296 -2.25365,-2.7851 -3.90625,-4.0625 l 0,-2.7188 0,-25.8124 0,-17.1876 -0.65625,-0.5 0,-15.625 -0.0937,-0.375 0,-14.1874 -0.9375,-1.1563 0,-1.0313 -0.84375,0 0,1.0313 -0.9375,1.3437 -1.5,0 -0.65625,0.625 -6.84375,0 -0.65625,-0.625 -1.46875,-0.094 -0.96875,-1.1563 0,-1.0312 -0.8125,0 0,1.0312 -0.96875,1.1563 0,3.4687 -0.375,-0.062 c -1.3411,7.0737 -7.91015,37.8111 -15.84375,52.125 -11.7058,-17.8135 -24.74545,-60.8404 -35.71875,-104.5 -9.0589,-36.0517 -16.8468,-73.1385 -21.125,-94.4376 l 0,-13.2187 -2.71875,-3.375 0,-2.9687 -2.4375,0 0,2.9687 -2.71875,3.5937 -4.3125,0 -1.875,1.7813 -19.84375,0 -1.875,-1.8125 -4.3125,0 0,-0.5 -2.75,-3.375 0,-2.9688 -2.40625,0 z m -2.75,14.7188 -0.0312,69.7812 -3.34375,5.8126 0,-70.4376 3.375,-5.1562 z m -4.6875,7.1875 0,70.6563 c -1.5959,2.6576 -3.2225,5.3283 -4.875,8 l 0,-71.25 4.875,-7.4063 z m 17.375,0.1875 1.28125,0 0,13.4375 c -1.1536,-4.5896 -2.21855,-8.8104 -3.15625,-12.625 l 1.875,0 0,-0.8125 z m 2.59375,0 4.875,0.031 0,26.8438 -1.84375,3.4375 c -1.0652,-4.0305 -2.09005,-7.9029 -3.03125,-11.5937 l 0,-18.7188 z m 6.21875,0.031 4.875,0 0,15.2188 c -1.5499,2.93 -3.1729,6.0105 -4.875,9.1562 l 0,-24.375 z m 6.21875,0 4.875,0 0,3.3438 c -1.5074,2.9229 -3.1411,6.0421 -4.875,9.3438 l 0,-12.6876 z m 6.21875,0 0.375,0 -0.375,0.7188 0,-0.7188 z m 2.3125,0.7813 2.15625,0 0.375,0.5 0,3.625 0.0312,0 0,23.8125 -2.84375,0 -2.03125,1.8125 0,-19.9375 0,-5.3125 2.3125,-4.5 z m -27.1875,1.7187 0.0312,0 c 1.4013,5.7539 3.0279,12.3066 4.875,19.4688 l 0,5.6875 -0.0312,2.9375 -1.875,-1.8125 -3,0 0,-26.2813 z m 23.53125,5.375 0,2.7188 0,19.9375 -4.875,0.031 0,-13.4063 c 1.741,-3.2767 3.3676,-6.3725 4.875,-9.2813 z m -43.5,1.3126 0,71.4062 c -1.6101,2.5903 -3.2437,5.1738 -4.875,7.75 l 0,-71.8125 4.875,-7.3437 z m 59.8125,3.3437 c 0.8705,4.2358 1.80695,8.7813 2.84375,13.5937 l 0,111 -1.59375,-4.1562 0,-59.5312 -1.25,-1.0313 0,-59.875 z m -66.03125,6 0,71.9063 c -1.6065,2.5124 -3.23306,5.0158 -4.875,7.5 l 0,-72.1876 4.875,-7.2187 z m 43.5,1.125 0,10.9375 -4.25,0 -0.625,0 0,-1.875 c 1.695,-3.1246 3.3215,-6.1608 4.875,-9.0625 z m -11.09375,7.4687 0.90625,3.4688 -0.90625,0 0,-3.4688 z m -38.625,0.625 0,72.2188 c -1.6136,2.431 -3.2437,4.8302 -4.875,7.2188 l 0,-72.2813 0.96875,-1.4063 3.90625,-5.75 z m 75.875,2.0313 c 0.9058,4.2039 1.85295,8.5819 2.84375,13.0937 l 0,103.3438 c -0.9554,-2.3213 -1.89545,-4.6911 -2.84375,-7.0938 l 0,-109.3437 z m -82.09375,7.0937 0,72.25 c -1.6136,2.3389 -3.2402,4.6587 -4.875,6.9376 l 0,-72.125 c 1.6454,-2.3779 3.279,-4.7234 4.875,-7.0626 z m 51.53125,7.125 3.9375,0 0.46875,0 0,15.7813 c -1.5358,-5.3823 -3.00495,-10.6573 -4.40625,-15.7813 z m 5.75,0 4.875,0 0,32.6563 -1.28125,0 c -1.2243,-4.0871 -2.42605,-8.1676 -3.59375,-12.1875 l 0,-20.4688 z m 6.21875,0 1.5625,0 0,0.7813 1.40625,0 1.90625,3.5 0,24.5 -0.8125,0.6563 0,0.9687 -0.71875,0 -1.96875,2.2187 -1.375,0 0,-32.625 z m -19.96875,0.031 0,32.5937 -1.21875,0 -2,-2.25 -0.6875,0 0,-1.25 -0.96875,-0.8124 0,-21.3126 c 1.3412,-2.3531 2.6459,-4.6445 3.9375,-6.9374 l 0.9375,-0.031 z m 1.3125,0 4.5,0 0.375,1.375 0,31.2187 -4.875,0 0,-32.5937 z m -51.0625,1.8437 0,72.0313 c -1.6172,2.2435 -3.21945,4.4558 -4.84375,6.625 l 0,-71.6875 c 1.6384,-2.332 3.23715,-4.6439 4.84375,-6.9688 z m 91.9375,0.5313 c 0.913,4.1119 1.8842,8.3433 2.875,12.625 l 0,95.75 c -0.959,-2.1763 -1.9266,-4.4264 -2.875,-6.6875 l 0,-101.6875 z m -34.65625,3.8437 c 1.5499,5.577 3.1729,11.3317 4.875,17.1563 l 0,9.2187 -4.875,0 0,-26.375 z m -63.46875,4.5 0,71.5626 c -1.6207,2.1374 -3.2472,4.2358 -4.875,6.2812 l 0,-70.9688 c 1.6313,-2.2895 3.2614,-4.5748 4.875,-6.875 z m 101.75,7.6563 c 0.9342,3.9916 1.8877,8.0414 2.875,12.125 l 0,88.25 c -0.959,-2.0241 -1.9196,-4.1127 -2.875,-6.25 l 0,-94.125 z m -107.96875,1.0937 0,70.75 c -1.6242,2.0206 -3.2507,3.9955 -4.875,5.9063 l 0,-69.9063 c 1.6207,-2.2328 3.2508,-4.4817 4.875,-6.75 z m 47.875,3.5626 0,4.5312 -1.8125,1.5312 0,49.8438 0,74.25 -1.25,-0.031 0,-125 3.0625,-5.125 z m 28.03125,4.875 1.40625,4.6874 -1.40625,0 0,-4.6874 z m -32.40625,2.4374 0,122.7813 -4.875,-0.094 0,-114.75 c 1.6525,-2.6433 3.2791,-5.2978 4.875,-7.9376 z m 68.125,3.4376 c 0.9271,3.8641 1.87415,7.7289 2.84375,11.625 l 0,80.7812 c -0.9626,-1.8684 -1.89545,-3.7961 -2.84375,-5.7812 l 0,-86.625 z m -74.34375,6.6562 0,112.5625 -4.875,-0.062 0,-104.8125 c 1.6313,-2.5513 3.2649,-5.122 4.875,-7.6875 z m 77.96875,8.0938 c 0.9342,3.7191 1.88125,7.4548 2.84375,11.1562 l 0,73.2812 c -0.9554,-1.6949 -1.88835,-3.4623 -2.84375,-5.2812 l 0,-79.1562 z m -54.09375,0.7187 1,0 0,39.8437 -0.84375,0 -2,-2.2187 -1.0625,0 0,-0.031 0,-32.1874 1.1875,-0.4376 0.25,-3.0624 1.46875,-1.9063 z m 2.3125,0 4.875,0 0,39.8437 -4.875,0 0,-39.8437 z m 6.21875,0 1.0625,0 3.8125,0 0,39.8437 -4.875,0 0,-39.8437 z m 6.21875,0 4.875,0 0,39.875 -4.875,0 0,-39.8437 0,-0.031 z m 6.21875,0 0.3125,0 c 1.2314,3.8571 2.4902,7.7231 3.75,11.5625 l 0,26.0625 -1.375,0 -2,2.25 -0.6875,0 0,-39.875 z M 588.25,1171 l 0,102.7188 -4.875,-0.094 0,-95.1875 c 1.64194,-2.4594 3.2578,-4.9498 4.875,-7.4375 z m -6.21875,9.4375 0,93.1563 -4.875,-0.063 0,-85.9687 c 1.6313,-2.3532 3.2614,-4.7187 4.875,-7.125 z m 94.03125,3.0313 c 0.9413,3.5597 1.909,7.1147 2.875,10.625 l 0,65.875 c -0.959,-1.5252 -1.9195,-3.1182 -2.875,-4.7813 l 0,-71.7187 z m -100.25,6.0312 0,84.0312 -4.875,-0.062 0,-77.125 c 1.6348,-2.2542 3.2614,-4.5366 4.875,-6.8438 z m 103.875,7.4375 c 0.9554,3.3971 1.9125,6.7433 2.875,10.0625 l 0,58.4375 c -0.9589,-1.3341 -1.9196,-2.7602 -2.875,-4.25 l 0,-64.25 z m -110.09375,1.25 0,75.25 -4.84375,-0.062 0,-68.6562 c 1.6243,-2.1375 3.22655,-4.3196 4.84375,-6.5313 z m -6.1875,8.2813 0,66.9062 -4.875,-0.031 0,-60.6876 c 1.6207,-2.0099 3.2543,-4.082 4.875,-6.1874 z m 119.9375,3.2187 c 0.9412,3.2202 1.87415,6.3931 2.84375,9.5 l 0,51 c -0.9589,-1.1359 -1.88835,-2.3575 -2.84375,-3.6563 l 0,-56.8437 z m -126.15625,4.5937 0,59.0626 -4.875,-0.063 0,-53.1874 c 1.6207,-1.8756 3.2508,-3.8237 4.875,-5.8126 z m 98.34375,1.2188 1.59375,4.0312 0,56.1876 -1.59375,-0.094 0,-60.125 z m 2.375,5.9688 c 0.9483,2.3248 1.88835,4.6038 2.84375,6.8437 l 0,47.625 -2.84375,-0.1875 0,-54.2812 z m 29.0625,0.25 c 0.9484,3.0254 1.9089,5.9838 2.875,8.875 l 0,43.5624 c -0.9554,-0.9201 -1.9195,-1.9413 -2.875,-3.0312 l 0,-49.4062 z m 43.84375,1.5624 3,0 0,10.5626 -2.5625,0 -0.65625,-0.625 -0.0312,-9.6563 0.25,0 0,-0.2813 z m 3.40625,0 3.25,0 0,10.375 -0.0625,0.1876 -3.1875,0 0,-10.5626 z m 3.65625,0 0.78125,0 0,0.2813 0.3125,0 c -0.2831,2.0807 -0.63375,4.6738 -1.09375,7.625 l 0,-7.9063 z m -8.125,0.2813 0.46875,0 0,9.6563 -0.9375,0 0,-0.6876 -0.125,-0.4062 0,-7.8438 0.59375,-0.7187 z m 10.53125,5.2813 0,3.1562 -0.0937,0.4062 0,0.8126 -0.59375,0 c 0.2406,-1.5499 0.4929,-3.0303 0.6875,-4.375 z m -119.625,0.1562 4.875,0 0,45.5625 -4.875,-0.1563 0,-45.4062 z m 6.21875,0 4.875,0 0,45.75 -4.875,-0.1562 0,-45.5938 z m 6.21875,0 4.875,0 0,45.9375 -4.875,-0.1563 0,-45.7812 z m -13.75,1 0,44.375 -3.90625,-0.094 0,-32.6874 1.4375,-0.2188 0.25,-5.0625 0.5,-2.6563 1.40625,-2.4374 0.3125,-1.2188 z m 42.1875,0.125 c 0.9484,2.1904 1.9125,4.3462 2.875,6.4375 l 0,39.625 -2.875,-0.1875 0,-45.875 z m -22.21875,0.5312 0.15625,0.5626 1.375,2.4374 0.5,2.6876 0.25,5.0312 1.78125,0.25 0,33.4688 c -2.0949,-0.067 -4.0625,-0.094 -4.0625,-0.094 l 0,-44.3438 z m 86.84375,0.094 0,17.5 -0.4375,0.375 0,17.2188 0,11.4062 c -0.7679,1.3058 -1.58175,2.419 -2.40625,3.2188 l 0,-37.875 c 1.1324,-4.3703 2.09005,-8.4715 2.84375,-11.8438 z m -35.5625,2.1875 c 0.9484,2.8203 1.89545,5.5578 2.84375,8.2187 l 0,36.125 c -0.9412,-0.6971 -1.89535,-1.4868 -2.84375,-2.375 l 0,-41.9687 z m -25.40625,5.3125 c 0.9484,2.0383 1.88835,4.0332 2.84375,5.9688 l 0,32.25 -2.84375,-0.2188 0,-38 z m 65.5625,0.2188 3.0625,0 0,11.25 -2.96875,0 -0.25,-0.2813 0.15625,-10.6875 0,-0.2812 z m 3.46875,0 2.4375,0 c -0.637,3.5916 -1.3736,7.414 -2.1875,11.25 l -0.25,0 0,-11.25 z m 4.46875,0.2812 0.46875,0 1.03125,1.5625 0,7.6875 -1.5625,1.7188 -0.78125,0 0,-6.2188 c 0.3114,-1.6242 0.58195,-3.2072 0.84375,-4.75 z m -8.46875,0.094 -0.0625,10.125 -0.25,0 0,-0.3438 -0.625,-0.5312 0.15625,-7.8126 0.78125,-1.4374 z m -36,4.4687 c 0.9555,2.5867 1.9196,5.1143 2.875,7.5313 l 0,28.625 c -0.9483,-0.4423 -1.9124,-1.0052 -2.875,-1.6563 l 0,-34.5 z m 28.3125,2.25 0,35.5625 c -0.8139,0.6051 -1.66895,0.9251 -2.84375,0.8438 l 0,-26.625 c 0.3255,-1.0299 0.6332,-2.047 0.9375,-3.0626 0.6653,-2.2541 1.30465,-4.4964 1.90625,-6.7187 z m 14.9375,0 0,4.1563 -0.84375,0 c 0.2901,-1.4013 0.58185,-2.7691 0.84375,-4.1563 z m -68.65625,0.25 c 0.9483,1.8897 1.87415,3.7165 2.84375,5.5 l 0,25.4375 -2.84375,-0.2188 0,-30.7187 z m 3.625,6.9375 c 0.9412,1.7198 1.88835,3.4141 2.84375,5.0312 l 0,19.2813 -2.84375,-0.25 0,-24.0625 z m 25.4375,0.031 c 0.9484,2.3497 1.88475,4.5815 2.84375,6.7188 l 0,20.75 -2.84375,-0.4375 0,-27.0313 z m 33.03125,2.6876 2.28125,0 c -0.7998,3.3511 -1.66665,6.6512 -2.59375,9.6874 l 0,-9.25 0.3125,-0.4374 z m 4.40625,0 2.15625,0 0,13.75 -3.25,0 0,-9.25 c 0.3928,-1.4792 0.75055,-3.0102 1.09375,-4.5 z m 2.53125,0 0.6875,0 0.53125,0.6562 0.0625,1.0625 0.40625,0.1563 0,8.375 0,2.7187 -0.34375,0 -0.6875,0.7813 -0.65625,0 0,-13.75 z m -7.625,1.7812 0,9.0625 -0.3125,0.9687 0,-1.4374 0,-8.5 0.3125,-0.094 z m -11.3125,0.5312 0.0937,24.0313 c -0.0371,-0.011 -0.0523,-0.019 -0.0937,-0.031 -0.9307,-0.276 -1.9019,-0.7916 -2.875,-1.5312 l 0,-14.5625 0.0312,0 c 1.0085,-2.5514 1.95905,-5.2134 2.84375,-7.9063 z m -42.84375,1.3126 c 0.9555,1.5605 1.909,3.0668 2.875,4.5 l 0,13.8437 -2.875,-0.2813 0,-18.0624 z m 25.4375,2.156 c 0.9589,2.0843 1.88835,4.049 2.84375,5.875 l 0,13.25 c -0.2972,0.1451 -0.5849,0.2517 -0.875,0.3438 l -1.96875,-0.3126 0,-19.1562 z m 32.3125,0.1875 0,7.7813 -2.40625,0 c 0.85996,-2.4587 1.68353,-5.0984 2.40625,-7.7813 z m -54.125,3.3125 c 0.9554,1.3907 1.9125,2.7438 2.875,4 l 0,9.0625 -2.875,-0.3125 0,-12.75 z m 35.59375,2.875 0,11.9688 c -0.9555,-0.8281 -1.9196,-1.8452 -2.875,-3.0626 l 0,-2.875 c 0.9944,-1.8366 1.9549,-3.8904 2.875,-6.0312 z m -10.15625,0.9688 c 0.959,1.7727 1.9266,3.4407 2.875,4.9374 l 0,3.4376 c -0.9413,1.2598 -1.9125,2.2757 -2.875,2.9374 l 0,-11.3124 z m -21.78125,1.1562 c 0.9554,1.2102 1.88835,2.3481 2.84375,3.4062 l 0,5.0626 -2.84375,-0.3126 0,-8.1562 z m 3.625,4.2812 c 0.9555,1.012 1.9089,1.932 2.875,2.7813 l 0,1.875 -2.875,-0.375 0,-4.2813 z m 21.8125,0.6876 0.375,0.5624 -0.375,0.5626 0,-1.125 z m 22.6875,1.0937 2.34375,0 0,12.9687 c -1.0439,-0.4247 -2.10055,-0.8465 -3.21875,-1.25 l 0,-8.6874 0.0312,-0.5 0.15625,-0.9376 0.5,-0.8124 0.1875,-0.7813 z m 2.75,0 1.1875,0 2.0625,0 0,14.5937 c -1.0298,-0.513 -2.1035,-0.991 -3.25,-1.4687 l 0,-13.125 z m 3.625,0 0.25,0 0.21875,0.75 0.46875,0.8437 0.1875,0.9376 0.0625,1.7187 0.53125,0.094 0,11.375 -0.0312,0 c -0.545,-0.2971 -1.1001,-0.6089 -1.6875,-0.9062 l 0,-14.8125 z M 710.375,1277 c 0.4141,0.5449 0.836,1.0983 1.25,1.5938 l 0,3.7187 c -0.9519,-0.2123 -1.87775,-0.3992 -2.84375,-0.5937 l 0,-2.5626 c 0.5378,-0.6476 1.08065,-1.3813 1.59375,-2.1562 z m -19.78125,0.5 c 0.6441,0.5415 1.2935,1.057 1.9375,1.5312 l -1.9375,-0.25 0,-1.2812 z m 21.8125,1.9688 c 0.9483,1.058 1.9125,1.9591 2.875,2.6562 l 0,0.9688 c -0.9555,-0.2194 -1.9267,-0.4092 -2.875,-0.625 l 0,-3 z m -4.40625,0.5624 0,1.5313 -1.40625,-0.25 c 0.4777,-0.3751 0.95685,-0.8142 1.40625,-1.2813 z m 22.21875,0.094 0,7.2812 -0.3125,-0.125 0,-7.0937 0.3125,-0.062 z m -4.5,0.5625 0,5.2187 c -0.7891,-0.2476 -1.59595,-0.4922 -2.40625,-0.7187 l 0,-2.1875 c 0.8351,-0.5591 1.64545,-1.3606 2.40625,-2.3125 z m -9.6875,1.9687 c 0.959,0.6158 1.90595,1.0265 3.03125,1.2813 0.2088,0.035 0.39205,0.084 0.59375,0.094 -0.19694,0 -0.38988,-0.031 -0.78125,-0.031 -0.9377,-0.2336 -1.87065,-0.4923 -2.84375,-0.7188 l 0,-0.625 z m 6.46875,0.7813 0,1.5313 c -0.9349,-0.2558 -1.85987,-0.5243 -2.8125,-0.9376 0.97612,0.072 1.91604,-0.135 2.8125,-0.5937 z m -79.125,8.6563 0,20.1562 -1.125,0 -8.5,-9.9062 0,-3.2188 5.875,-6.8438 3.75,-0.1874 z m -9.875,0.5312 -3.09375,3.625 -1.84375,0 -2.75,-3.2188 7.6875,-0.4062 z m -13.25,0.6875 5,5.8437 0,3.125 -8.5,9.9688 -1.3125,0 0,-18.6562 4.8125,-0.2813 z m 109.65625,7.5313 c 0.5379,0.131 1.7519,0.1927 3.3125,0.2812 l -2.9375,3.4375 -0.375,0 0,-3.7187 z m 6.28125,0.2812 3.34375,0.094 0,3.3437 -0.4375,0 -2.90625,-3.4375 z m -1.625,0.75 0.25,0 3.15625,3.6562 0,0.625 -6.5,0 0,-0.6562 3.09375,-3.625 z m -105.46875,2.6562 0.78125,0 8.96875,10.4688 0,1.875 -18.8125,0 0,-1.75 9.0625,-10.5938 z m 102.375,2.9376 6.5,0 0,0.5937 -3.125,3.625 -0.3125,0 -3.0625,-3.5625 0,-0.6562 z m -1.5625,1.5 0.28125,0 3,3.5312 0,1.0938 -3.0625,3.625 -0.21875,0 0,-7.6563 0,-0.5937 z m 9,0 0.65625,0 0,0.5 -0.0312,0 0,7.5624 -0.4375,0 -2.9375,-3.4374 0,-1.0626 2.75,-3.2187 0,-0.3437 z m -4.5,5.5937 0.59375,0 3.15625,3.6875 0,0.375 -6.96875,0 0,-0.3125 3.21875,-3.75 z M 731,1319.969 l 7.40625,0 0.6875,0.5937 -0.0625,3.25 -8.625,0 0,-2.8125 L 731,1319.969 z m -111,0.75 18.8125,0 0,1.8437 -8.875,10.4063 -0.90625,0 -9.03125,-10.5626 0,-1.6874 z m -4.5625,4.3437 1.84375,0 0,0.9687 8,9.3126 0,3.125 -8.53125,9.9687 -1.3125,0 0,-21.9687 0,-1.4063 z m 27.125,0 0.8125,0 0,1.7187 0,22.1876 -0.6875,-0.031 -8.90625,-10.4375 0,-3.2188 8.78125,-10.2187 z m -13.9375,16.1875 1.71875,0 9.3125,10.875 0,0.9375 -20.1875,0 0,-1.125 9.15625,-10.6875 z m -9.9375,15.6562 21.53125,0 1.71875,3.0313 0,8.0937 0.0312,0.031 -25.125,-0.031 -0.0625,-9.4062 1.90625,-1.7188 z"
       id="path5113"
       inkscape:export-filename="/Users/audreyr/Documents/artwork/barcamp-django/work-in-progress/barcamp-django-v17.png"
       inkscape:export-xdpi="90"
       inkscape:export-ydpi="90"
       inkscape:connector-curvature="0" />
    <rect
       style="fill:#371357;fill-opacity:1;stroke:none;display:inline"
       id="rect5045"
       width="960"
       height="135.93806"
       x="548.85126"
       y="1331.3496"
       inkscape:export-filename="/Users/audreyr/Documents/artwork/barcamp-django/work-in-progress/barcamp-django-v17.png"
       inkscape:export-xdpi="90"
       inkscape:export-ydpi="90" />
    <rect
       inkscape:export-ydpi="90"
       inkscape:export-xdpi="90"
       inkscape:export-filename="/Users/audreyr/Documents/artwork/barcamp-django/work-in-progress/barcamp-django-v17.png"
       y="728.04309"
       x="927.86053"
       height="297.15851"
       width="402.7999"
       id="rect5365"
       style="fill:#5e2094;fill-opacity:1;stroke:none;display:inline" />
    <path
       style="fill:#f96c00;fill-opacity:1;stroke:none;display:inline"
       d="m 1412.5312,895.21875 c 0,0 2.3561,103.20967 0.625,129.96875 l 15.4376,0 c -1.9174,-28.50866 -1.9375,-129.96875 -1.9376,-129.96875 l -14.125,0 z"
       id="rect5823"
       inkscape:export-filename="/Users/audreyr/Documents/artwork/barcamp-django/work-in-progress/barcamp-django-v17.png"
       inkscape:export-xdpi="90"
       inkscape:export-ydpi="90"
       inkscape:connector-curvature="0" />
  </g>
  <g
     inkscape:groupmode="layer"
     id="layer15"
     inkscape:label="trailer"
     transform="translate(-548.84375,-728.04309)">
    <path
       style="fill:#1abd9c;fill-opacity:1;stroke:none"
       d="m 1401.4092,777.97939 c -5.712,2.28479 7.9968,7.99677 7.9968,7.99677 0,0 -17.1359,21.7055 -21.7055,19.42071 -4.5696,-2.28479 15.9935,9.13916 15.9935,9.13916 0,0 -17.1359,15.99352 -21.7055,15.99352 -4.5696,0 17.1359,9.13916 17.1359,9.13916 0,0 -6.8543,10.28156 -15.9935,11.42395 -9.1392,1.1424 15.9935,9.13916 15.9935,9.13916 0,0 -19.4207,10.28155 -26.2751,7.99676 -6.8543,-2.28479 0,12.56635 6.8544,14.85114 6.8544,2.28479 18.2783,4.56958 18.2783,4.56958 0,0 -23.9903,19.42071 -29.7022,13.70873 -5.712,-5.71197 3.4272,18.27832 12.5663,18.27832 9.1392,0 39.7165,2.28479 39.7165,2.28479 0,0 30.5772,-2.28479 39.7164,-2.28479 9.1391,0 18.2783,-23.99029 12.5663,-18.27832 -5.7119,5.71198 -29.7022,-13.70873 -29.7022,-13.70873 0,0 11.4239,-2.28479 18.2783,-4.56958 6.8544,-2.28479 13.7087,-17.13593 6.8544,-14.85114 -6.8544,2.28479 -26.2751,-7.99676 -26.2751,-7.99676 0,0 25.1327,-7.99676 15.9935,-9.13916 -9.1392,-1.14239 -15.9935,-11.42395 -15.9935,-11.42395 0,0 21.7055,-9.13916 17.1359,-9.13916 -4.5696,0 -21.7055,-15.99352 -21.7055,-15.99352 0,0 20.5631,-11.42395 15.9935,-9.13916 -4.5696,2.28479 -21.7055,-19.42071 -21.7055,-19.42071 0,0 13.7088,-5.71198 7.9967,-7.99677 -5.712,-2.28479 -19.1533,-32.55825 -19.1533,-32.55825 0,0 -13.4413,30.27346 -19.1533,32.55825 z"
       id="path5077"
       inkscape:connector-curvature="0"
       sodipodi:nodetypes="scscscscsscsscsscsscscscscscs"
       inkscape:export-filename="/Users/audreyr/Documents/artwork/barcamp-django/work-in-progress/barcamp-django-v17.png"
       inkscape:export-xdpi="90"
       inkscape:export-ydpi="90" />
    <rect
       style="fill:#9b77ba;fill-opacity:1;stroke:none;display:inline"
       id="rect5376"
       width="102"
       height="8"
       x="774.76166"
       y="1492.8574"
       inkscape:transform-center-x="45.753576"
       transform="matrix(0.98576644,-0.16812056,0.16812056,0.98576644,0,0)"
       inkscape:transform-center-y="7.803157"
       inkscape:export-filename="/Users/audreyr/Documents/artwork/barcamp-django/work-in-progress/barcamp-django-v17.png"
       inkscape:export-xdpi="90"
       inkscape:export-ydpi="90" />
    <g
       id="g5367"
       transform="matrix(0.73680461,0,0,0.73680461,392.06444,341.9264)"
       inkscape:export-filename="/Users/audreyr/Documents/artwork/barcamp-django/work-in-progress/barcamp-django-v17.png"
       inkscape:export-xdpi="90"
       inkscape:export-ydpi="90">
      <g
         inkscape:export-ydpi="90"
         inkscape:export-xdpi="90"
         inkscape:export-filename="/Users/audreyr/Documents/artwork/barcamp-django/work-in-progress/barcamp-django-v12.png"
         transform="matrix(0.59966473,0,0,0.59966473,579.17573,431.90855)"
         id="g4664"
         style="display:inline">
        <path
           sodipodi:type="arc"
           style="fill:#76ddd2;fill-opacity:1;stroke:none"
           id="path4658"
           sodipodi:cx="1221"
           sodipodi:cy="1348.9211"
           sodipodi:rx="73"
           sodipodi:ry="73"
           d="m 1294,1348.9211 c 0,40.3168 -32.6832,73 -73,73 -40.3168,0 -73,-32.6832 -73,-73 0,-40.3167 32.6832,-73 73,-73 40.3168,0 73,32.6833 73,73 z"
           transform="translate(-13,189)" />
        <path
           sodipodi:type="arc"
           style="fill:#00b692;fill-opacity:1;stroke:none"
           id="path4662"
           sodipodi:cx="1221"
           sodipodi:cy="1348.9211"
           sodipodi:rx="73"
           sodipodi:ry="73"
           d="m 1294,1348.9211 c 0,40.3168 -32.6832,73 -73,73 -40.3168,0 -73,-32.6832 -73,-73 0,-40.3167 32.6832,-73 73,-73 40.3168,0 73,32.6833 73,73 z"
           transform="matrix(0.53424657,0,0,0.53424657,555.68493,817.26465)" />
        <path
           transform="matrix(0.42465753,0,0,0.42465753,689.49315,965.09162)"
           d="m 1294,1348.9211 c 0,40.3168 -32.6832,73 -73,73 -40.3168,0 -73,-32.6832 -73,-73 0,-40.3167 32.6832,-73 73,-73 40.3168,0 73,32.6833 73,73 z"
           sodipodi:ry="73"
           sodipodi:rx="73"
           sodipodi:cy="1348.9211"
           sodipodi:cx="1221"
           id="path4660"
           style="fill:#e4fdff;fill-opacity:1;stroke:none"
           sodipodi:type="arc" />
      </g>
      <path
         inkscape:export-ydpi="90"
         inkscape:export-xdpi="90"
         inkscape:export-filename="/Users/audreyr/Documents/artwork/barcamp-django/work-in-progress/barcamp-django-v12.png"
         sodipodi:nodetypes="sssccccccssss"
         inkscape:connector-curvature="0"
         id="rect4553"
         d="m 1125.1405,1119.7817 c -84.3378,-10e-5 -152.23425,48.3559 -152.23425,108.4383 l 0,95.616 c 0,18.5438 4.5237,47.0803 24.43997,51.2076 l 248.72828,0 13.7207,-26.1347 88.2044,0 13.0673,26.1347 63.4174,0 c 14.6894,-10.661 30.9532,-28.7436 30.9532,-51.2076 l 0,-62.9477 c 0,-60.0824 -80.9638,-141.1066 -165.3016,-141.1066 z"
         style="fill:#1ed9b4;fill-opacity:1;stroke:none;display:inline" />
      <path
         id="path5070"
         d="m 972.90625,1258.8125 0,65.0313 c 0,18.5437 4.52123,47.0602 24.4375,51.1874 l 248.71875,0 13.7187,-26.125 88.2188,0 13.0625,26.125 63.4063,0 c 14.6893,-10.661 30.9687,-28.7234 30.9687,-51.1874 l 0,-62.9688 c 0,-0.6883 -0.01,-1.3688 -0.031,-2.0625 l -482.49995,0 z"
         style="fill:#ff80a0;fill-opacity:1;stroke:none;display:inline"
         inkscape:connector-curvature="0" />
      <path
         inkscape:export-ydpi="90"
         inkscape:export-xdpi="90"
         inkscape:export-filename="/Users/audreyr/Documents/artwork/barcamp-django/work-in-progress/barcamp-django-v12.png"
         inkscape:connector-curvature="0"
         id="path4670"
         d="m 979.68492,1196.0213 c -4.40194,10.1652 -6.77867,20.9767 -6.77867,32.1987 l 0,39.0182 482.53125,0 0,-6.3499 c 0,-9.8385 -2.1852,-20.2351 -6.1865,-30.749 l -228.0861,0 19.6827,-34.118 -261.16268,0 z"
         style="fill:#ffffff;fill-opacity:1;stroke:none;display:inline" />
    </g>
    <rect
       inkscape:transform-center-y="88.681667"
       transform="matrix(0.01919909,-0.99981568,0.99943263,0.03368115,0,0)"
       inkscape:transform-center-x="1.7028101"
       y="1042.7219"
       x="-1369.2572"
       height="8.0013971"
       width="194.92238"
       id="rect5450"
       style="fill:#ff80a0;fill-opacity:1;stroke:none;display:inline"
       inkscape:export-filename="/Users/audreyr/Documents/artwork/barcamp-django/work-in-progress/barcamp-django-v17.png"
       inkscape:export-xdpi="90"
       inkscape:export-ydpi="90" />
    <rect
       style="fill:#f96c00;fill-opacity:1;stroke:none;display:inline"
       id="rect5452"
       width="192.92552"
       height="8.0013046"
       x="-1448.9442"
       y="-1306.2007"
       inkscape:transform-center-x="-1.7027775"
       transform="matrix(-0.01939782,-0.99981184,-0.99944419,0.03333636,0,0)"
       inkscape:transform-center-y="87.772768"
       inkscape:export-filename="/Users/audreyr/Documents/artwork/barcamp-django/work-in-progress/barcamp-django-v17.png"
       inkscape:export-xdpi="90"
       inkscape:export-ydpi="90" />
    <rect
       style="fill:#9b77ba;fill-opacity:1;stroke:none;display:inline"
       id="rect5417"
       width="72.124893"
       height="134.35028"
       x="1183.6968"
       y="1207.9115"
       ry="16.414213"
       inkscape:export-filename="/Users/audreyr/Documents/artwork/barcamp-django/work-in-progress/barcamp-django-v17.png"
       inkscape:export-xdpi="90"
       inkscape:export-ydpi="90" />
    <path
       style="fill:#7b49a6;fill-opacity:1;stroke:none"
       d="m 1019.2944,1209.6793 c 0,0 1.0607,5.3033 4.9498,6.0104 3.8891,0.7071 6.7175,-2.4749 6.7175,-2.4749 0,0 3.182,4.2427 7.0711,4.5962 3.889,0.3536 9.1923,-4.9497 9.1923,-4.9497 0,0 2.1214,4.5962 8.8389,4.5962 6.7175,0 9.1924,-4.9498 9.1924,-4.9498 0,0 3.5355,5.3033 8.1317,5.3033 4.5962,0 7.4246,-4.2426 7.4246,-4.2426 0,0 3.5355,4.2426 8.4853,4.2426 4.9497,0 9.1924,-4.2426 9.1924,-4.2426 0,0 1.4142,3.5355 6.3639,3.8891 4.9498,0.3535 9.8995,-3.182 9.8995,-3.182 0,0 2.4749,2.8284 5.3033,2.8284 2.8285,0 6.7176,-3.1819 6.7176,-3.1819 0,0 5.6568,3.889 12.0208,3.5355 6.3639,-0.3536 7.4246,-2.8284 7.4246,-2.8284 0,0 1.4142,3.5355 7.7782,3.5355 6.3639,0 7.7781,-3.8891 7.7781,-3.8891 0,0 4.2427,3.8891 9.1924,3.8891 4.9498,0 7.7782,-4.2426 7.7782,-4.2426 0,0 4.2426,4.5961 9.5459,4.9497 5.3033,0.3536 8.4853,-3.8891 8.4853,-3.8891 0,0 3.8891,3.8891 9.8995,3.8891 6.0104,0 6.364,-4.2426 6.364,-4.2426 0,0 4.2426,3.1819 11.3137,2.4748 7.0711,-0.7071 8.4853,-3.5355 8.4853,-3.5355 0,0 -0.3536,4.9497 5.3033,4.9497 5.6568,0 6.3639,-4.2426 6.3639,-4.2426 0,0 6.0104,2.8284 10.2531,2.8284 4.2426,0 6.0104,-3.1819 6.0104,-3.1819 0,0 4.2426,3.5355 8.8388,3.5355 4.5962,0 5.6569,-3.182 5.6569,-3.182 0,0 3.5355,3.8891 9.5459,3.8891 6.0104,0 7.0711,-3.8891 7.0711,-3.8891 0,0 3.5355,3.182 10.253,2.8284 6.7176,-0.3535 6.364,-2.4749 6.364,-2.4749 0,0 1.4142,3.182 6.7175,3.182 5.3033,0 8.4853,-3.1819 8.4853,-3.1819 0,0 1.0607,3.5355 4.2426,3.5355 3.182,0 4.2427,-2.8284 4.2427,-2.8284 l -0.7071,-3.8891 z"
       id="path5473"
       inkscape:connector-curvature="0"
       sodipodi:nodetypes="cscccscscscccscccscscscscscscscscscccscsccc"
       inkscape:export-filename="/Users/audreyr/Documents/artwork/barcamp-django/work-in-progress/barcamp-django-v17.png"
       inkscape:export-xdpi="90"
       inkscape:export-ydpi="90" />
  </g>
  <g
     inkscape:groupmode="layer"
     id="layer19"
     inkscape:label="chair"
     transform="translate(-548.84375,-728.04309)" />
  <g
     inkscape:groupmode="layer"
     id="layer11"
     inkscape:label="camper"
     transform="translate(-548.84375,-728.04309)" />
  <g
     inkscape:groupmode="layer"
     id="layer8"
     inkscape:label="mountains"
     transform="translate(-548.84375,-728.04309)" />
  <g
     inkscape:groupmode="layer"
     id="layer7"
     inkscape:label="dirt"
     style="display:inline"
     transform="translate(-548.84375,-728.04309)" />
  <g
     inkscape:groupmode="layer"
     id="layer4"
     inkscape:label="teeth"
     style="display:none"
     transform="translate(-548.84375,-728.04309)">
    <path
       style="fill:#ffffff;stroke:#351865;stroke-width:0.41964495;stroke-linecap:butt;stroke-linejoin:miter;stroke-miterlimit:4;stroke-opacity:1;stroke-dasharray:none"
       d="m 1448.2758,1058.1915 -1.7023,5.0916 5.1069,0.5457 -0.1891,-5.0918 z"
       id="path4824"
       inkscape:connector-curvature="0" />
    <path
       inkscape:connector-curvature="0"
       id="path4826"
       d="m 1453.9633,1069.6547 0.2557,-5.8281 -4.7477,0.8114 1.4519,5.3147 z"
       style="fill:#ffffff;stroke:#351865;stroke-width:0.42376092;stroke-linecap:butt;stroke-linejoin:miter;stroke-miterlimit:4;stroke-opacity:1;stroke-dasharray:none"
       inkscape:transform-center-x="0.88388348"
       inkscape:transform-center-y="-3.2875606" />
    <path
       inkscape:transform-center-y="-3.2474106"
       inkscape:transform-center-x="0.16108348"
       style="fill:#ffffff;stroke:#351865;stroke-width:0.42376092;stroke-linecap:butt;stroke-linejoin:miter;stroke-miterlimit:4;stroke-opacity:1;stroke-dasharray:none"
       d="m 1458.6134,1069.4537 0.9561,-5.7548 -4.8109,0.2334 0.8009,5.4509 z"
       id="path4828"
       inkscape:connector-curvature="0" />
    <path
       inkscape:connector-curvature="0"
       id="path4830"
       d="m 1451.9235,1058.5534 -0.1726,5.3658 5.0493,-0.9399 -1.6397,-4.8243 z"
       style="fill:#ffffff;stroke:#351865;stroke-width:0.41964495;stroke-linecap:butt;stroke-linejoin:miter;stroke-miterlimit:4;stroke-opacity:1;stroke-dasharray:none" />
  </g>
  <g
     inkscape:groupmode="layer"
     id="layer6"
     inkscape:label="mallow"
     style="display:inline"
     transform="translate(-548.84375,-728.04309)" />
  <g
     inkscape:groupmode="layer"
     id="layer5"
     inkscape:label="teeth2"
     style="display:inline"
     transform="translate(-548.84375,-728.04309)" />
  <g
     inkscape:groupmode="layer"
     id="layer3"
     inkscape:label="hair-behind-head"
     transform="translate(-548.84375,-728.04309)" />
  <g
     inkscape:groupmode="layer"
     id="layer14"
     inkscape:label="pony-back-legs"
     transform="translate(-548.84375,-728.04309)" />
  <g
     inkscape:groupmode="layer"
     id="layer16"
     inkscape:label="big-flame"
     transform="translate(-548.84375,-728.04309)" />
  <g
     inkscape:label="subtitle"
     inkscape:groupmode="layer"
     id="layer1"
     transform="translate(-548.84375,1199.516)"
     style="display:inline">
    <text
       xml:space="preserve"
       style="font-size:8px;font-style:italic;font-variant:normal;font-weight:bold;font-stretch:normal;line-height:125%;letter-spacing:0px;word-spacing:0px;fill:#000000;fill-opacity:1;stroke:none;font-family:DIN-BlackItalic;-inkscape-font-specification:DIN-BlackItalic Bold Italic"
       x="393.57144"
       y="661.34973"
       id="text3100"
       sodipodi:linespacing="125%"
       transform="translate(0,-1927.5591)"><tspan
         sodipodi:role="line"
         id="tspan3102"
         x="393.57144"
         y="661.34973" /></text>
    <g
       id="g5105"
       transform="translate(168.68481,-293.0351)"
       inkscape:export-filename="/Users/audreyr/Documents/artwork/barcamp-django/work-in-progress/barcamp-django-v17.png"
       inkscape:export-xdpi="90"
       inkscape:export-ydpi="90">
      <g
         transform="translate(-499.60213,484.66757)"
         id="g5093"
         inkscape:export-filename="/Users/audreyr/Documents/artwork/barcamp-django/work-in-progress/barcamp-django-v12.png"
         inkscape:export-xdpi="90"
         inkscape:export-ydpi="90">
        <path
           style="fill:#98451e;fill-opacity:1;stroke:none"
           d="m 1200.0628,-702.87776 116.6093,18.17364 c 2.2601,6.48097 1.2359,12.39291 -3.0729,17.73577 l -115.9264,-22.11492 c -2.0203,-8.06791 -1.0746,-9.26407 2.39,-13.79449 z"
           id="path5095"
           inkscape:connector-curvature="0"
           sodipodi:nodetypes="ccccc" />
        <path
           sodipodi:nodetypes="ccccc"
           inkscape:connector-curvature="0"
           id="path5097"
           d="m 1314.3981,-702.87776 -116.6093,18.17364 c -2.2601,6.48097 -1.2359,12.39291 3.0729,17.73577 l 115.9264,-22.11492 c 2.0203,-8.06791 1.0746,-9.26407 -2.39,-13.79449 z"
           style="fill:#b1410f;fill-opacity:1;stroke:none" />
      </g>
      <g
         style="fill:#ff6f00;fill-opacity:1"
         transform="matrix(0,1.3438072,-1.3438072,0,-1319.1566,-665.22059)"
         id="g5099"
         inkscape:export-filename="/Users/audreyr/Documents/artwork/barcamp-django/work-in-progress/barcamp-django-v12.png"
         inkscape:export-xdpi="90"
         inkscape:export-ydpi="90">
        <g
           transform="matrix(1.25,0,0,1.25,250.47673,-1596.6833)"
           style="fill:#ff6f00;fill-opacity:1;fill-rule:nonzero;stroke:none"
           id="g5101">
          <path
             style="fill:#ff6f00;fill-opacity:1"
             inkscape:connector-curvature="0"
             d="m 34.5909,35.5508 c 4.1113,-1.7139 4.2753,-8.251 2.4492,-11.6602 -2.4492,-4.5723 -8.6328,-3.8125 -12.8076,-2.6191 1.1572,-3.3243 3.2802,-7.8653 7.1142,-8.5215 3.8067,-0.6514 7.5332,1.7119 10.8438,3.2431 2.956,1.3692 8.1533,3.087 10.2881,-0.6474 0.6484,-1.5762 -1.2774,-2.875 -2.9659,-3.9463 C 47.8282,10.3291 46.0342,9.30372 44.1612,8.60152 84.7119,0 85.8301,85.081 42.9004,72.9551 c -3.0996,-0.8741 -6.081,-2.1338 -8.9502,-3.5879 4.0088,0.333 8.3272,-0.0918 11.5352,-2.6924 2.7471,-2.2266 4.1973,-6.8711 -0.3291,-7.9502 -4.0684,-0.9697 -8.499,1.5078 -12.5117,1.8486 -5.0528,0.4287 -9.3614,0.5557 -12.2344,-3.4287 2.2236,-0.2773 3.9453,-0.8691 4.8184,-1.501 1.5117,-1.0927 2.9765,-2.623 3.1093,-4.5722 0.2569,-3.7305 -2.6093,-7.2246 -5.8193,-8.8135 -1.4844,-0.7334 -3.2608,-0.9951 -4.8643,-0.5225 -2.0654,0.6094 -2.6611,2.3916 -4.1074,3.7618 -1.416,1.3408 -2.7383,2.3222 -4.68943,2.7119 C 6.58207,48.6113 4.38277,47.5185 2.62989,46.1601 1.67188,45.415 0.85645,44.5137 0,43.6572 c 3.65821,0.5225 8.53517,1.4658 10.6787,-2.6387 1.7237,-3.3017 -0.3222,-7.0556 1.5,-10.3964 2.3409,-4.2881 8.2803,-0.9278 11.1973,0.7568 3.3467,1.9336 6.6787,6.0605 11.2149,4.1719 z"
             id="path5103" />
        </g>
      </g>
    </g>
  </g>
  <g
     inkscape:groupmode="layer"
     id="layer9"
     inkscape:label="outlines"
     transform="translate(-548.84375,-728.04309)" />
  <g
     inkscape:groupmode="layer"
     id="layer10"
     inkscape:label="fill"
     transform="translate(-548.84375,-728.04309)">
    <flowRoot
       xml:space="preserve"
       id="flowRoot4831"
       style="font-size:8px;font-style:italic;font-variant:normal;font-weight:bold;font-stretch:normal;line-height:125%;letter-spacing:0px;word-spacing:0px;fill:#371357;fill-opacity:1;stroke:#26241f;stroke-opacity:1;display:inline;font-family:DIN-BlackItalic;-inkscape-font-specification:DIN-BlackItalic Bold Italic"
       transform="matrix(1.0605072,0,0,1.0605072,-282.73107,258.44951)"
       inkscape:export-filename="/Users/audreyr/Documents/artwork/barcamp-django/work-in-progress/barcamp-django-v17.png"
       inkscape:export-xdpi="90"
       inkscape:export-ydpi="90"><flowRegion
         id="flowRegion4833"><rect
           id="rect4835"
           width="437.43399"
           height="74.085945"
           x="860"
           y="649.92114"
           style="fill:#371357;fill-opacity:1;stroke:#26241f;stroke-opacity:1" /></flowRegion><flowPara
         style="font-size:24px;font-style:normal;font-variant:normal;font-weight:normal;font-stretch:normal;fill:#371357;fill-opacity:1;stroke:none;font-family:Repaint;-inkscape-font-specification:Repaint"
         id="flowPara4837">San Francisco 2014</flowPara></flowRoot>    <flowRoot
       transform="matrix(1.6194442,0,0,1.6194442,-702.23544,-70.785204)"
       style="font-size:8px;font-style:italic;font-variant:normal;font-weight:bold;font-stretch:normal;line-height:125%;letter-spacing:0px;word-spacing:0px;fill:#371357;fill-opacity:1;stroke:#26241f;stroke-opacity:1;display:inline;font-family:DIN-BlackItalic;-inkscape-font-specification:DIN-BlackItalic Bold Italic"
       id="flowRoot4839"
       xml:space="preserve"
       inkscape:export-filename="/Users/audreyr/Documents/artwork/barcamp-django/work-in-progress/barcamp-django-v17.png"
       inkscape:export-xdpi="90"
       inkscape:export-ydpi="90"><flowRegion
         id="flowRegion4841"><rect
           style="fill:#371357;fill-opacity:1;stroke:#26241f;stroke-opacity:1"
           y="649.92114"
           x="860"
           height="74.085945"
           width="437.43399"
           id="rect4843" /></flowRegion><flowPara
         id="flowPara4845"
         style="font-size:10.9289484px;font-style:normal;font-variant:normal;font-weight:normal;font-stretch:normal;fill:#371357;fill-opacity:1;stroke:none;font-family:Repaint;-inkscape-font-specification:Repaint">October 4-5</flowPara></flowRoot>    <g
       id="g4847"
       transform="matrix(0.69438766,0,0,0.69438766,77.84029,-55.583)"
       inkscape:export-filename="/Users/audreyr/Documents/artwork/barcamp-django/work-in-progress/barcamp-django-v17.png"
       inkscape:export-xdpi="90"
       inkscape:export-ydpi="90">
      <flowRoot
         transform="matrix(9.2163799,0,0,9.2163799,-7173.9708,-4802.079)"
         style="font-size:8px;font-style:italic;font-variant:normal;font-weight:bold;font-stretch:normal;line-height:125%;letter-spacing:0px;word-spacing:0px;fill:#371357;fill-opacity:1;stroke:none;font-family:DIN-BlackItalic;-inkscape-font-specification:DIN-BlackItalic Bold Italic"
         id="flowRoot4849"
         xml:space="preserve"><flowRegion
           id="flowRegion4851"><rect
             style="fill:#371357;fill-opacity:1;stroke:none"
             y="649.92114"
             x="860"
             height="74.085945"
             width="437.43399"
             id="rect4854" /></flowRegion><flowPara
           id="flowPara4856"
           style="font-size:24px;font-style:normal;font-variant:normal;font-weight:normal;font-stretch:normal;fill:#371357;fill-opacity:1;stroke:none;font-family:Summer Jams;-inkscape-font-specification:Summer Jams">DJANGO</flowPara></flowRoot>      <flowRoot
         xml:space="preserve"
         id="flowRoot4858"
         style="font-size:8px;font-style:italic;font-variant:normal;font-weight:bold;font-stretch:normal;line-height:125%;letter-spacing:0px;word-spacing:0px;fill:#371357;fill-opacity:1;stroke:#371357;stroke-width:0.1927423;stroke-miterlimit:4;stroke-opacity:1;stroke-dasharray:none;font-family:DIN-BlackItalic;-inkscape-font-specification:DIN-BlackItalic Bold Italic"
         transform="matrix(5.9208823,0,0,5.9208823,-4300.8008,-2730.2145)"><flowRegion
           id="flowRegion4860"><rect
             id="rect4862"
             width="440"
             height="47.142857"
             x="860"
             y="649.92114"
             style="fill:#371357;fill-opacity:1;stroke:#371357;stroke-width:0.1927423;stroke-miterlimit:4;stroke-opacity:1;stroke-dasharray:none" /></flowRegion><flowPara
           id="flowPara4864"
           style="font-size:24px;font-style:normal;font-variant:normal;font-weight:bold;font-stretch:normal;letter-spacing:0.09433496px;fill:#371357;fill-opacity:1;stroke:#371357;stroke-width:0.1927423;stroke-miterlimit:4;stroke-opacity:1;stroke-dasharray:none;font-family:Summer Jams;-inkscape-font-specification:Summer Jams Bold">BarCamp</flowPara></flowRoot>      <g
         transform="matrix(0.7677467,0,0,0.7677467,107.47935,1089.6669)"
         style="fill:#ff80a0;fill-opacity:1"
         id="g4866">
        <flowRoot
           xml:space="preserve"
           id="flowRoot4868"
           style="font-size:8px;font-style:italic;font-variant:normal;font-weight:bold;font-stretch:normal;line-height:125%;letter-spacing:0px;word-spacing:0px;fill:#ff80a0;fill-opacity:1;stroke:none;font-family:DIN-BlackItalic;-inkscape-font-specification:DIN-BlackItalic Bold Italic"
           transform="matrix(7.7120258,0,0,7.7120258,-5741.842,-4975.4449)"><flowRegion
             id="flowRegion4870"
             style="fill:url(#linearGradient4884);fill-opacity:1"><rect
               id="rect4872"
               width="440"
               height="47.142857"
               x="860"
               y="649.92114"
               style="fill:#ff80a0;fill-opacity:1;stroke:none" /></flowRegion><flowPara
             id="flowPara4874"
             style="font-size:24px;font-style:normal;font-variant:normal;font-weight:bold;font-stretch:normal;letter-spacing:0.09433496px;fill:#ff80a0;fill-opacity:1;stroke:none;font-family:Summer Jams Fill;-inkscape-font-specification:Summer Jams Fill Bold">BarCamp</flowPara></flowRoot>        <flowRoot
           transform="matrix(12.004454,0,0,12.004454,-9484.183,-7674.0752)"
           style="font-size:8px;font-style:italic;font-variant:normal;font-weight:bold;font-stretch:normal;line-height:125%;letter-spacing:0px;word-spacing:0px;fill:#ff80a0;fill-opacity:1;stroke:none;font-family:DIN-BlackItalic;-inkscape-font-specification:DIN-BlackItalic Bold Italic"
           id="flowRoot4876"
           xml:space="preserve"><flowRegion
             id="flowRegion4878"
             style="fill:url(#linearGradient4886);fill-opacity:1"><rect
               style="fill:#ff80a0;fill-opacity:1;stroke:none"
               y="649.92114"
               x="860"
               height="74.085945"
               width="437.43399"
               id="rect4880" /></flowRegion><flowPara
             id="flowPara4882"
             style="font-size:24px;font-style:normal;font-variant:normal;font-weight:normal;font-stretch:normal;fill:#ff80a0;fill-opacity:1;stroke:none;font-family:Summer Jams Fill;-inkscape-font-specification:Summer Jams Fill">DJANGO</flowPara></flowRoot>      </g>
    </g>
    <flowRoot
       xml:space="preserve"
       id="flowRoot5357"
       style="font-size:8px;font-style:italic;font-variant:normal;font-weight:bold;font-stretch:normal;line-height:125%;letter-spacing:0px;word-spacing:0px;fill:#aa89c8;fill-opacity:1;stroke:none;font-family:DIN-BlackItalic;-inkscape-font-specification:DIN-BlackItalic Bold Italic"
       transform="matrix(1.504168,0,0,1.504168,-524.5498,-353.35314)"
       inkscape:export-filename="/Users/audreyr/Documents/artwork/barcamp-django/work-in-progress/barcamp-django-v17.png"
       inkscape:export-xdpi="90"
       inkscape:export-ydpi="90"><flowRegion
         id="flowRegion5359"><rect
           id="rect5361"
           width="285"
           height="140"
           x="990"
           y="793.92114"
           style="fill:#aa89c8;fill-opacity:1" /></flowRegion><flowPara
         id="flowPara5363"
         style="font-size:40px;font-style:italic;font-variant:normal;font-weight:bold;font-stretch:normal;line-height:89.99999762%;fill:#aa89c8;fill-opacity:1;font-family:Summer Jams Fill;-inkscape-font-specification:Summer Jams Fill Bold Italic">An unconference for Django enthusiasts</flowPara></flowRoot>    <flowRoot
       inkscape:export-ydpi="90"
       inkscape:export-xdpi="90"
       inkscape:export-filename="/Users/audreyr/Documents/artwork/barcamp-django/work-in-progress/barcamp-django-v17.png"
       transform="matrix(1.504168,0,0,1.504168,-309.58934,-100.20891)"
       style="font-size:8px;font-style:italic;font-variant:normal;font-weight:bold;font-stretch:normal;line-height:125%;letter-spacing:0px;word-spacing:0px;fill:#ffffff;fill-opacity:1;stroke:none;font-family:DIN-BlackItalic;-inkscape-font-specification:DIN-BlackItalic Bold Italic"
       id="flowRoot5815"
       xml:space="preserve"><flowRegion
         id="flowRegion5817"><rect
           style="fill:#ffffff;fill-opacity:1"
           y="793.92114"
           x="990"
           height="140"
           width="285"
           id="rect5819" /></flowRegion><flowPara
         style="font-size:18.61494255px;font-style:italic;font-variant:normal;font-weight:bold;font-stretch:normal;line-height:89.99999762%;fill:#ffffff;fill-opacity:1;font-family:Repaint;-inkscape-font-specification:Repaint Bold Italic"
         id="flowPara5821">(camping optional)</flowPara></flowRoot>  </g>
  <g
     inkscape:groupmode="layer"
     id="layer12"
     inkscape:label="pony-pulling-trailer"
     transform="translate(-548.84375,-728.04309)" />
  <g
     inkscape:groupmode="layer"
     id="layer13"
     inkscape:label="hair-highlights"
     transform="translate(-548.84375,-728.04309)">
    <g
       id="g5298"
       transform="matrix(-0.64635531,0,0,0.64635531,2489.3206,174.56624)"
       inkscape:export-filename="/Users/audreyr/Documents/artwork/barcamp-django/work-in-progress/barcamp-django-v17.png"
       inkscape:export-xdpi="90"
       inkscape:export-ydpi="90">
      <path
         inkscape:export-ydpi="90"
         inkscape:export-xdpi="90"
         inkscape:export-filename="/Users/audreyr/Documents/artwork/barcamp-django/work-in-progress/barcamp-django-v12.png"
         style="fill:#fc7a7a;fill-opacity:1;stroke:none"
         d="m 2615.8372,1787.6892 c 0,0 3.807,-4.6497 6.364,-8.4853 2.8284,-4.2426 16.9705,-6.3639 24.3952,8.1317 7.4246,14.4957 4.2426,40.3051 9.8995,35.7089 5.6568,-4.5962 3.1819,-9.1924 3.1819,-9.1924 0,0 7.4247,2.8285 7.7782,8.1318 0.3536,5.3033 -4.2426,13.435 -8.8388,13.7886 -4.5962,0.3535 -38.1838,-28.9914 -39.9516,-32.8805 -1.7677,-3.8891 -2.8284,-15.2028 -2.8284,-15.2028 z"
         id="path5300"
         inkscape:connector-curvature="0"
         sodipodi:nodetypes="csssccccc" />
      <path
         inkscape:export-ydpi="90"
         inkscape:export-xdpi="90"
         inkscape:export-filename="/Users/audreyr/Documents/artwork/barcamp-django/work-in-progress/barcamp-django-v12.png"
         inkscape:connector-curvature="0"
         id="path5302"
         d="m 2677.7815,1881.184 5.5,34 c 0,0 -1.5,6 -8.5,7 -7,1 -11.5,-3.5 -11.5,-3.5 l -0.5,-32 z"
         style="fill:#f9f7ea;fill-opacity:1;stroke:none;display:inline" />
      <path
         inkscape:export-ydpi="90"
         inkscape:export-xdpi="90"
         inkscape:export-filename="/Users/audreyr/Documents/artwork/barcamp-django/work-in-progress/barcamp-django-v12.png"
         style="fill:#f9f7ea;fill-opacity:1;stroke:none;display:inline"
         d="m 2724.7053,1860.7103 34.6399,24.1093 c 0,0 3.7114,6.0671 -2.2314,12.0309 -5.9429,5.9637 -14.1941,5.5403 -14.1941,5.5403 l -28.0564,-26.1221 z"
         id="path5304"
         inkscape:connector-curvature="0" />
      <path
         style="fill:#fc7a7a;fill-opacity:1;stroke:none"
         d="m 2757.3629,1883.3753 3.3588,1.9445 c 0,0 1.7677,6.5407 -2.1214,11.137 -3.0052,3.5355 -12.5512,6.5407 -12.5512,6.5407 l -2.2981,-5.3033 c 0,0 5.9142,-1.4061 9.8264,-5.4497 2.7112,-2.8023 3.7855,-8.8692 3.7855,-8.8692 z"
         id="path5306"
         inkscape:connector-curvature="0"
         sodipodi:nodetypes="cccccsc" />
      <path
         inkscape:export-ydpi="90"
         inkscape:export-xdpi="90"
         inkscape:export-filename="/Users/audreyr/Documents/artwork/barcamp-django/work-in-progress/barcamp-django-v12.png"
         style="fill:#ffffff;fill-opacity:1;stroke:none;display:inline"
         d="m 2637.7575,1846.0254 c 24.5315,2.9843 21.2132,27.2236 21.2132,27.2236 l -36.7695,41.0122 c 5.8991,14.2933 9.8954,18.5205 25.1837,16.799 l 26.3848,-47.9117 c 13.9232,1.6052 27.8464,3.3599 41.7696,-2.8284 l 14.8995,45.9117 c 8.8925,1.456 17.5741,4.5993 28.2842,-8.4853 l -27.6274,-44.4975 c 0,0 12.1979,-21.8696 12.7279,-33.941 0.9951,-22.6619 -26.5101,-33.0129 -48.0832,-19.799 -13.189,8.0785 -37.7411,12.7279 -41.0122,12.7279 -6.0959,-10.6667 -9.1327,-22.557 -24.0416,-29.6985 0,0 15.5563,-15.5563 7.071,-21.2132 -8.4853,-5.6569 -15.5563,16.9706 -15.5563,16.9706 l -14.799,0.3431 c -9.3664,6.0081 -22.8899,14.9346 -28.1159,22.9092 -8.2675,13.2393 -8.9587,27.5248 12.7694,33.6755 7.9093,2.2389 33.346,-10.3057 45.7018,-9.1982 z"
         id="path5308"
         inkscape:connector-curvature="0"
         sodipodi:nodetypes="cccccccccssccscccsc" />
      <path
         inkscape:export-ydpi="90"
         inkscape:export-xdpi="90"
         inkscape:export-filename="/Users/audreyr/Documents/artwork/barcamp-django/work-in-progress/barcamp-django-v12.png"
         style="fill:#fc7a7a;fill-opacity:1;stroke:none;display:inline"
         d="m 2730.5343,1783.8516 c 12.5,-8.4999 27,0.5 32.5,-3 5.5,-3.5 8,-8.9999 8,-8.9999 0,0 15,22.4999 4.5,40.4999 -9.0347,13.2302 -28.3554,19.1641 -41.3953,11.1932 -13.0399,-7.9709 -11.0273,-33.8946 -3.6047,-39.6932 z"
         id="path5310"
         inkscape:connector-curvature="0"
         sodipodi:nodetypes="cscczc" />
      <path
         inkscape:export-ydpi="90"
         inkscape:export-xdpi="90"
         inkscape:export-filename="/Users/audreyr/Documents/artwork/barcamp-django/work-in-progress/barcamp-django-v12.png"
         style="fill:#351865;stroke:none;display:inline"
         d="m 2625.5599,1799.1796 c 0,0 6.8943,-15.026 9.7228,-14.6724 2.8284,0.3535 3.1819,4.9497 0.7071,8.8388 -2.4749,3.8891 -6.7283,8.1532 -6.7283,8.1532 -0.7219,-0.8228 -1.8246,-2.0585 -3.7016,-2.3196 z"
         id="path5312"
         inkscape:connector-curvature="0"
         sodipodi:nodetypes="csccc" />
      <path
         inkscape:export-ydpi="90"
         inkscape:export-xdpi="90"
         inkscape:export-filename="/Users/audreyr/Documents/artwork/barcamp-django/work-in-progress/barcamp-django-v12.png"
         style="fill:#fc7a7a;fill-opacity:1;stroke:none;display:inline"
         d="m 2574.0343,1785.8516 c 3.6484,0.5751 6.4986,-2.8402 11,2 0,0 2,10 10,12 8,2 26.6464,-1.5858 26.6464,-1.5858 l -3.1213,-13.7678 c 0,0 -7.5251,10.3536 -16.5251,6.3536 -9,-4 -10,-12 -16,-12 -6,0 -12,7 -12,7 z"
         id="path5314"
         inkscape:connector-curvature="0"
         sodipodi:nodetypes="ccsccssc" />
      <path
         inkscape:export-ydpi="90"
         inkscape:export-xdpi="90"
         inkscape:export-filename="/Users/audreyr/Documents/artwork/barcamp-django/work-in-progress/barcamp-django-v12.png"
         style="fill:#351865;fill-opacity:1;stroke:none;display:inline"
         d="m 2631.2471,1802.5813 c 10.2692,7.6354 14.2958,12.0792 13.8885,18.5668 -0.4073,6.4876 -2.0748,12.8566 2.168,16.0386 4.2426,3.182 10.6674,0.4122 12.3743,-1.4142 7.1428,-7.6428 2.9749,-17.1673 2.9749,-17.1673 0,0 -2.6354,10.3059 -6.3676,10.3033 -4.6037,0 -4.0319,-4.4497 -5.4461,-9.3995 -0.6003,-2.1011 -2.8819,-9.0613 -6.2287,-12.9169 -3.0159,-3.4746 -8.5628,-6.3812 -11.2001,-7.0087 -1.4612,1.0708 -2.1631,2.9979 -2.1631,2.9979 z"
         id="path5316"
         inkscape:connector-curvature="0"
         sodipodi:nodetypes="czsscsssccc" />
      <path
         inkscape:export-ydpi="90"
         inkscape:export-xdpi="90"
         inkscape:export-filename="/Users/audreyr/Documents/artwork/barcamp-django/work-in-progress/barcamp-django-v12.png"
         sodipodi:nodetypes="cssscssc"
         inkscape:connector-curvature="0"
         id="path5318"
         d="m 2585.8673,1778.7698 c 0,0 9.4142,12.9142 14.4142,13.9142 5,1 17,-1.5 19,-4.5 2,-3 6.1464,-11.2322 11.1464,-10.7322 5,0.5 9.8536,1.2322 9.8536,1.2322 0,0 -15,-10 -23,-6.5 -8,3.5 -12,10.5 -16,8.5 -4,-2 -15.4142,-1.9142 -15.4142,-1.9142 z"
         style="fill:#f9c2d0;fill-opacity:1;stroke:none;display:inline" />
      <path
         inkscape:export-ydpi="90"
         inkscape:export-xdpi="90"
         inkscape:export-filename="/Users/audreyr/Documents/artwork/barcamp-django/work-in-progress/barcamp-django-v12.png"
         inkscape:connector-curvature="0"
         id="path5320"
         d="m 2730.7815,1818.184 c 0,0 -3.25,-8.25 5,-17.75 8.25,-9.5 18,-4.25 22.5,-6.5 4.5,-2.25 12.75,-21.25 12.75,-21.25 0,0 4.5,14.25 1.5,22.5 -3,8.25 -18.5,7.75 -20.25,10.5 -1.75,2.75 3.25,10 -1.5,14 -4.75,4 -16.5,4.25 -16.5,4.25 z"
         style="fill:#d40000;stroke:none;display:inline" />
      <path
         transform="translate(1358.9907,265.65268)"
         inkscape:export-ydpi="90"
         inkscape:export-xdpi="90"
         inkscape:export-filename="/Users/audreyr/Documents/artwork/barcamp-django/work-in-progress/barcamp-django-v12.png"
         d="m 1223.5,1577.0461 c 0,0.7594 -0.6156,1.375 -1.375,1.375 -0.7594,0 -1.375,-0.6156 -1.375,-1.375 0,-0.7593 0.6156,-1.375 1.375,-1.375 0.7594,0 1.375,0.6157 1.375,1.375 z"
         sodipodi:ry="1.375"
         sodipodi:rx="1.375"
         sodipodi:cy="1577.0461"
         sodipodi:cx="1222.125"
         id="path5322"
         style="fill:#eae3b5;fill-opacity:1;stroke:none"
         sodipodi:type="arc" />
      <path
         inkscape:export-ydpi="90"
         inkscape:export-xdpi="90"
         inkscape:export-filename="/Users/audreyr/Documents/artwork/barcamp-django/work-in-progress/barcamp-django-v12.png"
         transform="translate(1363.7407,265.40268)"
         sodipodi:type="arc"
         style="fill:#eae3b5;fill-opacity:1;stroke:none"
         id="path5324"
         sodipodi:cx="1222.125"
         sodipodi:cy="1577.0461"
         sodipodi:rx="1.375"
         sodipodi:ry="1.375"
         d="m 1223.5,1577.0461 c 0,0.7594 -0.6156,1.375 -1.375,1.375 -0.7594,0 -1.375,-0.6156 -1.375,-1.375 0,-0.7593 0.6156,-1.375 1.375,-1.375 0.7594,0 1.375,0.6157 1.375,1.375 z" />
      <g
         id="g5326">
        <path
           transform="matrix(0.76429774,0,0,0.76429774,621.54686,427.36854)"
           d="m 2622,1817.6711 c 0,3.728 -3.0221,6.75 -6.75,6.75 -3.7279,0 -6.75,-3.022 -6.75,-6.75 0,-3.7279 3.0221,-6.75 6.75,-6.75 3.7279,0 6.75,3.0221 6.75,6.75 z"
           sodipodi:ry="6.75"
           sodipodi:rx="6.75"
           sodipodi:cy="1817.6711"
           sodipodi:cx="2615.25"
           id="path5328"
           style="fill:#371357;fill-opacity:1;stroke:none"
           sodipodi:type="arc" />
        <path
           transform="matrix(0.1878485,0,0,0.1878485,2130.1866,1473.8125)"
           sodipodi:type="arc"
           style="fill:#ffffff;fill-opacity:1;stroke:none"
           id="path5330"
           sodipodi:cx="2615.25"
           sodipodi:cy="1817.6711"
           sodipodi:rx="6.75"
           sodipodi:ry="6.75"
           d="m 2622,1817.6711 c 0,3.728 -3.0221,6.75 -6.75,6.75 -3.7279,0 -6.75,-3.022 -6.75,-6.75 0,-3.7279 3.0221,-6.75 6.75,-6.75 3.7279,0 6.75,3.0221 6.75,6.75 z" />
      </g>
      <path
         style="fill:#fc7a7a;fill-opacity:1;stroke:none"
         d="m 2624.4268,1911.6596 -3.7123,3.182 c 0,0 0.7071,9.1923 7.2479,13.9653 6.5407,4.773 19.0918,3.7123 19.0918,3.7123 l 3.182,-6.1872 c 0,0 -10.7427,1.6246 -16.7938,-3.3587 -6.0511,-4.9833 -9.0156,-11.3137 -9.0156,-11.3137 z"
         id="path5332"
         inkscape:connector-curvature="0"
         sodipodi:nodetypes="ccscczc" />
      <path
         style="fill:#fc7a7a;fill-opacity:1;stroke:none"
         d="m 2728.7554,1921.4001 2.091,6.6997 c 0,0 7.6014,3.0052 15.026,0.8839 7.4246,-2.1213 13.7583,-10.3781 13.7583,-10.3781 l -3.8285,-6.6997 c 0,0 -5.7944,7.7782 -11.8048,9.1924 -6.0104,1.4142 -15.242,0.3018 -15.242,0.3018 z"
         id="path5334"
         inkscape:connector-curvature="0"
         sodipodi:nodetypes="ccsccsc" />
      <path
         style="fill:#fc7a7a;fill-opacity:1;stroke:none"
         d="m 2663.1409,1914.6647 -0.1768,4.9498 c 0,0 4.773,4.0659 11.137,3.5356 6.3639,-0.5304 9.8995,-6.8943 9.8995,-6.8943 l -1.0607,-4.4194 c 0,0 -3.2855,4.23 -8.9424,4.9371 -5.6568,0.7071 -10.8566,-2.1088 -10.8566,-2.1088 z"
         id="path5336"
         inkscape:connector-curvature="0"
         sodipodi:nodetypes="cccccsc" />
    </g>
    <g
       id="g5413"
       transform="matrix(0.78357174,0,0,0.78357174,425.87076,267.08189)"
       inkscape:export-filename="/Users/audreyr/Documents/artwork/barcamp-django/work-in-progress/barcamp-django-v17.png"
       inkscape:export-xdpi="90"
       inkscape:export-ydpi="90">
      <rect
         ry="15"
         y="1207.9211"
         x="1164"
         height="98"
         width="98"
         id="rect5406"
         style="fill:#f96c00;fill-opacity:1;stroke:none" />
      <path
         id="rect5408"
         d="m 1209.9688,1207.9062 c -1.1513,9.104 -4.3507,28.0059 -11.4688,34 -9.5,8 -21,14.5 -21,14.5 0,0 18,12 24,22 3.7378,6.2296 6.1433,18.8594 7.4062,27.5 l 11.9376,0 c 1.0814,-8.1764 3.4797,-19.9964 8.6562,-27 8.5,-11.5 16.5,-22.5 16.5,-22.5 0,0 -13,-6 -17.5,-17 -3.038,-7.4262 -5.3534,-22.4238 -6.5625,-31.5 l -11.9687,0 z"
         style="fill:#9b77ba;fill-opacity:1;stroke:none"
         inkscape:connector-curvature="0" />
    </g>
    <g
       id="g5751"
       transform="matrix(0.91139017,0,0,0.91139017,-504.47073,370.84168)"
       inkscape:export-filename="/Users/audreyr/Documents/artwork/barcamp-django/work-in-progress/barcamp-django-v17.png"
       inkscape:export-xdpi="90"
       inkscape:export-ydpi="90">
      <rect
         style="fill:#ffbd8a;fill-opacity:1;stroke:none;display:inline"
         id="rect5753"
         width="39.996479"
         height="6.3476453"
         x="-1124.9352"
         y="1859.5416"
         inkscape:transform-center-x="1.7029215"
         transform="matrix(0.07426732,-0.99723837,0.99996225,0.00868919,0,0)"
         inkscape:transform-center-y="22.866381" />
      <rect
         inkscape:transform-center-y="22.866362"
         transform="matrix(-0.07426732,-0.99723837,-0.99996225,0.00868919,0,0)"
         inkscape:transform-center-x="-1.7029095"
         y="-1748.9285"
         x="-1156.3767"
         height="6.3476453"
         width="39.996479"
         id="rect5755"
         style="fill:#ffbd8a;fill-opacity:1;stroke:none;display:inline" />
      <rect
         inkscape:transform-center-y="21.14889"
         transform="matrix(0.07426732,-0.99723837,0.99996225,0.00868919,0,0)"
         inkscape:transform-center-x="1.5750632"
         y="1872.3798"
         x="-1109.2845"
         height="5.8708706"
         width="36.992325"
         id="rect5757"
         style="fill:#ffbd8a;fill-opacity:1;stroke:none;display:inline" />
      <rect
         style="fill:#ffbd8a;fill-opacity:1;stroke:none;display:inline"
         id="rect5759"
         width="36.992325"
         height="5.8708706"
         x="-1140.9314"
         y="-1759.6581"
         inkscape:transform-center-x="-1.5750396"
         transform="matrix(-0.07426732,-0.99723837,-0.99996225,0.00868919,0,0)"
         inkscape:transform-center-y="21.148889" />
      <g
         id="g5761"
         transform="translate(107,0)">
        <rect
           style="fill:#f96c00;fill-opacity:1;stroke:none"
           id="rect5763"
           width="56"
           height="57"
           x="1679.3137"
           y="1029.5536"
           ry="12.042253" />
        <path
           inkscape:connector-curvature="0"
           style="fill:#f39971;fill-opacity:1;stroke:none"
           d="m 1691.3438,1029.5625 c -1.926,0 -3.7326,0.4527 -5.3438,1.25 l 0,54.5 c 1.6094,0.7949 3.4208,1.25 5.3438,1.25 l 5.6562,0 0,-57 -5.6562,0 z"
           id="path5765" />
        <path
           inkscape:connector-curvature="0"
           style="fill:#f39971;fill-opacity:1;stroke:none"
           d="m 1704,1029.5625 0,57 11,0 0,-57 -11,0 z"
           id="path5767" />
        <path
           inkscape:connector-curvature="0"
           style="fill:#f39971;fill-opacity:1;stroke:none"
           d="m 1720.5,1029.5625 0,57 2.7812,0 c 3.1993,0 6.0666,-1.2599 8.2188,-3.2813 l 0,-50.4687 c -2.1522,-2.0214 -5.0195,-3.25 -8.2188,-3.25 l -2.7812,0 z"
           id="path5769" />
      </g>
      <rect
         transform="matrix(1,0,-0.55452476,0.83216723,0,0)"
         style="fill:#df5213;fill-opacity:1;stroke:none"
         id="rect5771"
         width="56"
         height="23.439835"
         x="2508.3538"
         y="1298.4813"
         ry="4.9520774" />
      <path
         style="fill:#f39971;fill-opacity:1;stroke:none"
         d="m 1800.3418,1080.5566 c -1.926,0 -3.8359,0.155 -5.6289,0.4278 l -12.4279,18.6503 c 1.4282,0.2721 3.1358,0.4278 5.0588,0.4278 l 5.6562,0 12.998,-19.5059 -5.6562,0 z"
         id="path5773"
         inkscape:connector-curvature="0" />
      <path
         style="fill:#f39971;fill-opacity:1;stroke:none"
         d="m 1812.998,1080.5566 -12.998,19.5059 11,0 12.998,-19.5059 -11,0 z"
         id="path5775"
         inkscape:connector-curvature="0" />
      <path
         style="fill:#f39971;fill-opacity:1;stroke:none"
         d="m 1829.498,1080.5566 -12.998,19.5059 2.7812,0 c 3.1993,0 6.3539,-0.4311 8.967,-1.1229 l 11.5086,-17.2708 c -1.6912,-0.6917 -4.2783,-1.1122 -7.4776,-1.1122 l -2.7812,0 z"
         id="path5777"
         inkscape:connector-curvature="0" />
      <path
         inkscape:connector-curvature="0"
         id="path5779"
         d="m 1784.3315,1067.0566 -17.8315,19.0059 9.1665,0 17.8315,-19.0059 -9.1665,0 z"
         style="fill:#ffbd8a;fill-opacity:1;stroke:none" />
      <path
         style="fill:#ffbd8a;fill-opacity:1;stroke:none"
         d="m 1836.3315,1066.0566 -17.8315,19.0059 9.1665,0 17.8315,-19.0059 -9.1665,0 z"
         id="path5781"
         inkscape:connector-curvature="0" />
    </g>
    <g
       transform="matrix(0.91139017,0,0,0.91139017,-375.47073,370.84168)"
       id="g5783"
       inkscape:export-filename="/Users/audreyr/Documents/artwork/barcamp-django/work-in-progress/barcamp-django-v17.png"
       inkscape:export-xdpi="90"
       inkscape:export-ydpi="90">
      <rect
         inkscape:transform-center-y="22.866381"
         transform="matrix(0.07426732,-0.99723837,0.99996225,0.00868919,0,0)"
         inkscape:transform-center-x="1.7029215"
         y="1859.5416"
         x="-1124.9352"
         height="6.3476453"
         width="39.996479"
         id="rect5785"
         style="fill:#ffbd8a;fill-opacity:1;stroke:none;display:inline" />
      <rect
         style="fill:#ffbd8a;fill-opacity:1;stroke:none;display:inline"
         id="rect5787"
         width="39.996479"
         height="6.3476453"
         x="-1156.3767"
         y="-1748.9285"
         inkscape:transform-center-x="-1.7029095"
         transform="matrix(-0.07426732,-0.99723837,-0.99996225,0.00868919,0,0)"
         inkscape:transform-center-y="22.866362" />
      <rect
         style="fill:#ffbd8a;fill-opacity:1;stroke:none;display:inline"
         id="rect5789"
         width="36.992325"
         height="5.8708706"
         x="-1109.2845"
         y="1872.3798"
         inkscape:transform-center-x="1.5750632"
         transform="matrix(0.07426732,-0.99723837,0.99996225,0.00868919,0,0)"
         inkscape:transform-center-y="21.14889" />
      <rect
         inkscape:transform-center-y="21.148889"
         transform="matrix(-0.07426732,-0.99723837,-0.99996225,0.00868919,0,0)"
         inkscape:transform-center-x="-1.5750396"
         y="-1759.6581"
         x="-1140.9314"
         height="5.8708706"
         width="36.992325"
         id="rect5791"
         style="fill:#ffbd8a;fill-opacity:1;stroke:none;display:inline" />
      <g
         transform="translate(107,0)"
         id="g5793">
        <rect
           ry="12.042253"
           y="1029.5536"
           x="1679.3137"
           height="57"
           width="56"
           id="rect5795"
           style="fill:#f96c00;fill-opacity:1;stroke:none" />
        <path
           id="path5797"
           d="m 1691.3438,1029.5625 c -1.926,0 -3.7326,0.4527 -5.3438,1.25 l 0,54.5 c 1.6094,0.7949 3.4208,1.25 5.3438,1.25 l 5.6562,0 0,-57 -5.6562,0 z"
           style="fill:#f39971;fill-opacity:1;stroke:none"
           inkscape:connector-curvature="0" />
        <path
           id="path5799"
           d="m 1704,1029.5625 0,57 11,0 0,-57 -11,0 z"
           style="fill:#f39971;fill-opacity:1;stroke:none"
           inkscape:connector-curvature="0" />
        <path
           id="path5801"
           d="m 1720.5,1029.5625 0,57 2.7812,0 c 3.1993,0 6.0666,-1.2599 8.2188,-3.2813 l 0,-50.4687 c -2.1522,-2.0214 -5.0195,-3.25 -8.2188,-3.25 l -2.7812,0 z"
           style="fill:#f39971;fill-opacity:1;stroke:none"
           inkscape:connector-curvature="0" />
      </g>
      <rect
         ry="4.9520774"
         y="1298.4813"
         x="2508.3538"
         height="23.439835"
         width="56"
         id="rect5803"
         style="fill:#df5213;fill-opacity:1;stroke:none"
         transform="matrix(1,0,-0.55452476,0.83216723,0,0)" />
      <path
         inkscape:connector-curvature="0"
         id="path5805"
         d="m 1800.3418,1080.5566 c -1.926,0 -3.8359,0.155 -5.6289,0.4278 l -12.4279,18.6503 c 1.4282,0.2721 3.1358,0.4278 5.0588,0.4278 l 5.6562,0 12.998,-19.5059 -5.6562,0 z"
         style="fill:#f39971;fill-opacity:1;stroke:none" />
      <path
         inkscape:connector-curvature="0"
         id="path5807"
         d="m 1812.998,1080.5566 -12.998,19.5059 11,0 12.998,-19.5059 -11,0 z"
         style="fill:#f39971;fill-opacity:1;stroke:none" />
      <path
         inkscape:connector-curvature="0"
         id="path5809"
         d="m 1829.498,1080.5566 -12.998,19.5059 2.7812,0 c 3.1993,0 6.3539,-0.4311 8.967,-1.1229 l 11.5086,-17.2708 c -1.6912,-0.6917 -4.2783,-1.1122 -7.4776,-1.1122 l -2.7812,0 z"
         style="fill:#f39971;fill-opacity:1;stroke:none" />
      <path
         style="fill:#ffbd8a;fill-opacity:1;stroke:none"
         d="m 1784.3315,1067.0566 -17.8315,19.0059 9.1665,0 17.8315,-19.0059 -9.1665,0 z"
         id="path5811"
         inkscape:connector-curvature="0" />
      <path
         inkscape:connector-curvature="0"
         id="path5813"
         d="m 1836.3315,1066.0566 -17.8315,19.0059 9.1665,0 17.8315,-19.0059 -9.1665,0 z"
         style="fill:#ffbd8a;fill-opacity:1;stroke:none" />
    </g>
  </g>
  <g
     inkscape:groupmode="layer"
     id="layer17"
     inkscape:label="decorative-swirls"
     transform="translate(-548.84375,-728.04309)">
    <g
       id="g5400"
       transform="translate(0,17)"
       inkscape:export-filename="/Users/audreyr/Documents/artwork/barcamp-django/work-in-progress/barcamp-django-v17.png"
       inkscape:export-xdpi="90"
       inkscape:export-ydpi="90">
      <path
         sodipodi:nodetypes="cczczczc"
         inkscape:connector-curvature="0"
         id="path5393"
         d="m 1090,794.92114 84,0 c 0,0 -1.8159,-16.65553 -6,-19 -4.1841,-2.34447 -16,9 -16,9 0,0 -8.4551,-20.58418 -15,-21 -6.5449,-0.41582 -16,16 -16,16 0,0 -7.939,-13.4423 -14,-13 -6.061,0.4423 -17,28 -17,28 z"
         style="fill:#aa89c8;fill-opacity:1;stroke:none" />
      <path
         id="path5395"
         d="m 1137,763.90625 c -2.4637,-0.15653 -5.3399,2.09735 -7.9688,4.9375 l 3.0313,-0.0312 0.9063,3.34375 2.6562,-1.78125 3.5312,1.96875 1.75,-2.84375 3.625,1.09375 c -2.4184,-3.60873 -5.111,-6.53374 -7.5312,-6.6875 z m -30,3 c -1.7308,0.1263 -3.8732,2.50583 -6.0312,5.78125 l 1.9374,1.0625 3,-1.78125 2.125,2.5 2.3126,-3.375 3.5312,1.59375 0.5,-1.53125 c -2.3575,-2.43945 -5.0048,-4.42297 -7.375,-4.25 z m 59.625,8.6875 c -1.4056,5.6e-4 -3.186,0.79316 -5.0312,1.875 l 2.125,0.875 1.9374,2.3125 2.125,-1.25 3.3126,1.59375 c -0.8389,-2.40599 -1.8525,-4.39824 -3.0938,-5.09375 -0.3923,-0.21979 -0.8646,-0.3127 -1.375,-0.3125 z"
         style="fill:#ffffff;fill-opacity:1;stroke:none"
         inkscape:connector-curvature="0" />
    </g>
  </g>
  <g
     inkscape:groupmode="layer"
     id="layer18"
     inkscape:label="shade"
     transform="translate(-548.84375,-728.04309)">
    <path
       style="fill:#5e2094;fill-opacity:1;stroke:none"
       d="m 1300.8102,1183.9211 32.1898,29 -315,-3.0527 57.4818,-25.9473 z"
       id="path5448"
       inkscape:connector-curvature="0"
       inkscape:export-filename="/Users/audreyr/Documents/artwork/barcamp-django/work-in-progress/barcamp-django-v17.png"
       inkscape:export-xdpi="90"
       inkscape:export-ydpi="90" />
  </g>
</svg>
